<svg width="18" height="20" viewBox="0 0 18 20" fill="none" xmlns="http://www.w3.org/2000/svg">
    <path d="M17.25 5C17.6642 5 18 5.33579 18 5.75C18 6.1297 17.7178 6.44349 17.3518 6.49315L17.25 6.5H12V19.25C12 19.6297 11.7178 19.9435 11.3518 19.9932L11.25 20C10.8703 20 10.5565 19.7178 10.5068 19.3518L10.5 19.25V14H7.5V19.25C7.5 19.6642 7.16421 20 6.75 20C6.3703 20 6.05651 19.7178 6.00685 19.3518L6 19.25V6.5H0.75C0.370304 6.5 0.0565091 6.21785 0.00684667 5.85177L0 5.75C0 5.3703 0.282154 5.05651 0.648229 5.00685L0.75 5H17.25ZM9 0C10.1 0 11 0.9 11 2C11 3.1 10.1 4 9 4C7.9 4 7 3.1 7 2C7 0.9 7.9 0 9 0Z" fill="#2AB665"/>
</svg>
