<svg width="21" height="20" viewBox="0 0 21 20" fill="none" xmlns="http://www.w3.org/2000/svg">
    <path d="M4.54819 1.94998L4.55783 3.89995L4.37317 3.95921C3.1646 4.34783 2.08832 5.10025 1.31109 6.10349C1.17604 6.27575 1.08784 6.40529 1.10989 6.39702C1.12092 6.39151 1.22427 6.34741 1.33727 6.29918C2.10762 5.96844 2.87107 5.77138 3.75579 5.67491C4.03279 5.64597 4.77695 5.63357 5.08701 5.65424C6.73657 5.76586 8.29517 6.35568 9.57816 7.35478C9.98193 7.67036 10.5125 8.17887 10.8212 8.54958C11.4827 9.34335 11.9608 10.1826 12.2957 11.139C12.4308 11.5262 12.4501 11.6902 12.3977 11.9948C12.2985 12.5667 12.0146 13.0958 11.5612 13.5479C11.4606 13.6485 11.3724 13.7311 11.3655 13.7311C11.3586 13.7311 11.3462 13.6677 11.3366 13.5892C11.3076 13.3522 11.1299 12.761 10.9535 12.3117C10.1294 10.2184 8.45778 8.573 6.35484 7.78474C5.52662 7.47468 4.70253 7.31758 3.7489 7.28726C3.19354 7.26934 2.51277 7.33687 1.89953 7.46916C1.40755 7.5739 0.837032 7.76132 0.378133 7.96665L0.299583 8.0011L0.248594 8.17474C0.142482 8.53717 0.0639322 8.93544 0.0184558 9.34886C-0.00910573 9.59691 -0.0049715 10.381 0.0253461 10.6374C0.0804691 11.0921 0.168666 11.5069 0.298205 11.9066C0.761238 13.337 1.7438 14.5745 3.03782 15.3559C3.2652 15.4937 3.64693 15.6866 3.8936 15.7886C4.03692 15.8479 4.45034 15.9912 4.57988 16.027C4.59229 16.0311 4.59642 16.4018 4.5978 17.8199C4.59918 18.8038 4.60331 19.6968 4.60882 19.8043L4.61709 20L12.3922 15.0362C16.6684 12.3062 20.1673 10.0696 20.1673 10.0655C20.1673 10.0599 4.73285 0.118513 4.59366 0.0344505L4.53716 0L4.54819 1.94998Z" fill="#2AB665"/>
</svg>