<svg width="96" height="65" viewBox="0 0 96 65" fill="none" xmlns="http://www.w3.org/2000/svg">
    <path d="M37.3135 17.8446H4.30489V34.0422H37.3135V17.8446Z" fill="#3E4D67"/>
    <path d="M34.3564 19.8273H7.27567V32.0595H34.3564V19.8273Z" fill="#E6F2ED"/>
    <path d="M24.0825 30.586H2.42064V51.3126H24.0825V30.586Z" fill="#3E4D67"/>
    <path d="M12.0344 61.5838C13.396 62.3855 14.7988 63.209 15.8854 63.209C16.9719 63.209 18.3748 62.3855 19.7364 61.5838C21.4831 60.5653 23.4636 59.3952 25.7467 59.3952C28.0298 59.3952 30.0103 60.5545 31.757 61.5838C33.1186 62.3855 34.5215 63.209 35.608 63.209C36.6945 63.209 38.0974 62.3855 39.459 61.5838C41.2057 60.5653 43.1863 59.3952 45.4693 59.3952C47.7524 59.3952 49.733 60.5545 51.4797 61.5838C52.8413 62.3855 54.2441 63.209 55.3306 63.209C56.4172 63.209 57.8201 62.3855 59.1817 61.5838C60.9284 60.5653 62.9089 59.3952 65.192 59.3952C67.4751 59.3952 69.4556 60.5545 71.2023 61.5838C72.5639 62.3855 73.9668 63.209 75.0533 63.209C76.1399 63.209 77.5427 62.3855 78.9043 61.5838C80.1146 60.8687 81.4487 60.0994 82.9204 59.6985C87.3903 50.6083 96 32.1245 96 24.6703C96 17.617 96 6.91245 96 6.91245C96 6.91245 41.1232 11.6255 24.1513 24.9954C20.4378 27.9207 0 45.4403 0 45.4403V61.5946C1.74671 60.5761 3.72721 59.406 6.01031 59.406C8.30716 59.3952 10.2877 60.5653 12.0344 61.5838Z" fill="#2AB665"/>
    <path d="M79.2069 64.91H80.3071C80.3071 64.91 80.4584 64.6066 80.7335 64.0757C80.2384 64.3574 79.7295 64.6499 79.2069 64.91Z" fill="#E83B44"/>
    <path d="M12.0344 61.5838C13.396 62.3855 14.7988 63.209 15.8854 63.209C16.9719 63.209 18.3748 62.3855 19.7364 61.5838C21.4831 60.5653 23.4636 59.3952 25.7467 59.3952C28.0298 59.3952 30.0103 60.5545 31.757 61.5838C33.1186 62.3855 34.5215 63.209 35.608 63.209C36.6945 63.209 38.0974 62.3855 39.459 61.5838C41.2057 60.5653 43.1863 59.3952 45.4693 59.3952C47.7524 59.3952 49.733 60.5545 51.4797 61.5838C52.8413 62.3855 54.2441 63.209 55.3306 63.209C56.4172 63.209 57.8201 62.3855 59.1817 61.5838C60.9284 60.5653 62.9089 59.3952 65.192 59.3952C67.4751 59.3952 69.4556 60.5545 71.2023 61.5838C72.5639 62.3855 73.9668 63.209 75.0533 63.209C76.1399 63.209 77.5427 62.3855 78.9043 61.5838C80.1146 60.8687 81.4487 60.0994 82.9204 59.6985C87.3903 50.6083 96 32.1245 96 24.6703C96 17.617 96 16.4252 96 16.4252C96 16.4252 41.1232 21.1382 24.1513 34.5081C20.4378 37.4335 0 52.0927 0 52.0927V61.5946C1.74671 60.5761 3.72721 59.406 6.01031 59.406C8.30716 59.3952 10.2877 60.5653 12.0344 61.5838Z" fill="#262F3F"/>
    <path d="M83.3192 31.1711C83.3192 28.9825 81.0636 27.2056 78.2854 27.2056C75.5072 27.2056 73.2516 28.9825 73.2516 31.1711C73.2516 33.3597 75.5072 35.1366 78.2854 35.1366C81.0636 35.1366 83.3192 33.3597 83.3192 31.1711Z" fill="#E6F2ED"/>
    <path d="M88.298 13.7382C88.298 12.5356 87.0602 11.5605 85.5335 11.5605C84.0069 11.5605 82.7691 12.5356 82.7691 13.7382C82.7691 14.9409 84.0069 15.916 85.5335 15.916C87.0602 15.9052 88.298 14.9409 88.298 13.7382Z" fill="#262F3F"/>
    <path d="M76.016 15.4826C76.016 14.28 74.7783 13.3049 73.2516 13.3049C71.725 13.3049 70.4871 14.28 70.4871 15.4826C70.4871 16.6852 71.725 17.6604 73.2516 17.6604C74.7783 17.6495 76.016 16.6852 76.016 15.4826Z" fill="#262F3F"/>
    <path d="M62.6338 18.0829C62.6338 16.8803 61.396 15.9052 59.8693 15.9052C58.3427 15.9052 57.1049 16.8803 57.1049 18.0829C57.1049 19.2856 58.3427 20.2607 59.8693 20.2607C61.396 20.2607 62.6338 19.2856 62.6338 18.0829Z" fill="#262F3F"/>
    <path d="M49.5404 21.3333C49.5404 20.1307 48.3026 19.1555 46.776 19.1555C45.2493 19.1555 44.0115 20.1307 44.0115 21.3333C44.0115 22.5359 45.2493 23.511 46.776 23.511C48.3026 23.511 49.5404 22.5359 49.5404 21.3333Z" fill="#262F3F"/>
    <path d="M37.3272 12.3948H4.3186V13.3699H4.35986V17.3462H4.3186V18.3213H37.3272V12.3948ZM9.03612 16.7503H6.31289V13.9658H9.03612V16.7503ZM14.3175 16.7503H11.5943V13.9658H14.3175V16.7503ZM19.5989 16.7503H16.8756V13.9658H19.5989V16.7503ZM24.8665 16.7503H22.1433V13.9658H24.8665V16.7503ZM30.1478 16.7503H27.4247V13.9658H30.1478V16.7503ZM32.6923 16.7503V13.9658H35.4155V16.7503H32.6923Z" fill="#3E4D67"/>
    <path d="M9.58625 4.16048H8.23839V13.3049H9.58625V4.16048Z" fill="#3E4D67"/>
    <path d="M11.608 6.29489H6.2166V7.35666H11.608V6.29489Z" fill="#3E4D67"/>
    <path d="M17.7559 0H16.408V13.3049H17.7559V0Z" fill="#3E4D67"/>
    <path d="M19.7777 3.44539H14.3862V4.50716H19.7777V3.44539Z" fill="#3E4D67"/>
    <path d="M21.9232 8.20175H12.2545V9.26355H21.9232V8.20175Z" fill="#3E4D67"/>
</svg>
