<svg width="182" height="74" viewBox="0 0 182 74" fill="none" xmlns="http://www.w3.org/2000/svg">
    <path d="M114.788 23.182L139.779 21.4928L171.554 29.7508L174.211 19.515L141.612 11.0405C141.064 10.8961 140.486 10.8383 139.923 10.8816L114.139 12.6285L114.788 23.182Z" fill="#3E4D67"/>
    <path d="M11.9495 55.7059C14.7955 53.8142 18.6349 54.5751 20.5443 57.4094C22.4701 60.2681 21.7015 64.1482 18.8312 66.0569L12.0612 70.5588C9.20305 72.4594 5.34539 71.6836 3.44422 68.8259C1.54224 65.9669 2.31884 62.1074 5.17854 60.2065L11.9495 55.7059Z" fill="#262F3F"/>
    <path d="M52.2185 60.4727C51.7132 60.2273 51.2945 59.8664 50.9624 59.4044L50.6881 59.029C53.3157 54.2504 56.7517 48.0136 58.8161 44.4766C59.076 44.0435 59.3503 43.6392 59.6535 43.2494L63.7969 39.9289C64.4899 39.6113 65.2117 39.3659 65.9913 39.1926C67.5938 38.8317 69.3551 38.7884 71.1742 39.0194L71.2031 39.0483L74.7257 42.3399C75.1877 43.0617 75.3609 43.9135 75.231 44.7653C75.0866 45.6893 74.5958 46.5122 73.8306 47.0608L73.4841 47.3207C71.3041 46.2379 69.1819 45.6171 67.4206 46.0213C65.7604 46.3967 64.5188 47.3062 63.6525 48.8077C62.0933 51.493 59.6824 55.4198 57.4302 59.0435L55.9143 60.1551C54.8171 60.9492 53.4023 61.0647 52.2185 60.4727Z" fill="#262F3F"/>
    <path d="M108.783 25.5208C108.97 24.2937 109.057 22.8933 108.335 21.7383L101.94 10.4053L111.15 9.84222L112.175 26.5314L108.552 26.748C108.638 26.3004 108.739 25.8673 108.783 25.5208Z" fill="#617583"/>
    <path d="M19.8942 47.6094L22.7094 45.6604C22.8971 46.5555 23.258 47.4362 23.8355 48.2158L23.9509 48.389L34.4178 59.0146L29.7402 62.2485C28.7729 62.8982 27.4591 62.6383 26.8239 61.671L19.3167 50.5401C18.667 49.5728 18.9269 48.259 19.8942 47.6094Z" fill="#617583"/>
    <path d="M60.6352 15.0828L59.5236 17.9414L26.9538 41.1271C25.2213 42.3976 24.846 44.823 26.1164 46.5555L51.5111 72.3254C52.7815 74.0579 55.2069 74.4332 56.9394 73.1628L99.182 42.2821C100.914 41.0261 107.194 24.9288 105.938 23.1964L94.4466 2.86917C93.6237 0.617 91.1406 -0.552391 88.8884 0.256079L63.2483 9.51018C60.9961 10.3475 59.8268 12.8307 60.6352 15.0828ZM46.4148 50.2657L64.4322 35.7999C67.2618 33.7354 71.232 34.3562 73.2964 37.1858L76.848 40.4919C78.9125 43.3216 78.2916 47.2918 75.4764 49.3562L57.5457 62.465C54.716 64.5295 50.7459 63.9087 48.6814 61.0791L45.0289 59.1301C42.9788 56.3004 43.5852 52.3302 46.4148 50.2657Z" fill="#008B4F"/>
    <path d="M174.211 33.952C174.211 33.952 181.126 46.3533 181.126 50.1791C181.126 53.9905 178.037 57.0945 174.211 57.0945C170.4 57.0945 167.296 54.0049 167.296 50.1791C167.296 46.3533 174.211 33.952 174.211 33.952ZM176.867 52.9366C178.224 52.9222 179.307 51.3052 179.293 49.2985C179.278 47.3062 176.752 40.8384 176.752 40.8384C176.752 40.8384 177.069 47.3206 177.084 49.3129C177.113 51.3196 175.51 52.951 176.867 52.9366Z" fill="#617583"/>
    <path d="M147.589 14.6931C146.506 14.3899 145.554 14.462 145.438 14.8518L145.178 15.7903C145.077 16.1801 145.857 16.7287 146.925 17.0318L164.423 21.9115C165.505 22.2147 166.458 22.1425 166.574 21.7527L166.834 20.8143C166.935 20.4245 166.155 19.8759 165.072 19.5728L147.589 14.6931Z" fill="white"/>
    <path d="M70.9864 8.67276C69.9325 9.04812 69.1962 9.66893 69.3261 10.0443L69.6582 10.9538C69.7881 11.3292 70.7554 11.3292 71.8093 10.9538L88.9026 4.80366C89.9565 4.4283 90.6929 3.80749 90.5629 3.43213L90.2309 2.52264C90.1009 2.14728 89.1337 2.14728 88.0798 2.52264L70.9864 8.67276Z" fill="white"/>
</svg>
