<svg width="21" height="21" viewBox="0 0 21 21" fill="none" xmlns="http://www.w3.org/2000/svg">
    <path d="M10.0016 0C15.5253 0 20.0031 4.47785 20.0031 10.0016C20.0031 15.5253 15.5253 20.0031 10.0016 20.0031C4.47785 20.0031 0 15.5253 0 10.0016C0 4.47785 4.47785 0 10.0016 0ZM12.9405 14.5013H7.06265C7.71469 16.9154 8.84804 18.5031 10.0016 18.5031C11.1551 18.5031 12.2884 16.9154 12.9405 14.5013ZM5.50986 14.5018L2.78738 14.5017C3.74572 16.0348 5.17916 17.2404 6.88154 17.9123C6.35927 17.0925 5.92828 16.0662 5.61127 14.8968L5.50986 14.5018ZM17.2157 14.5017L14.4932 14.5018C14.1695 15.8356 13.7019 17.0014 13.1205 17.9124C14.7175 17.2824 16.0771 16.1834 17.0305 14.7853L17.2157 14.5017ZM5.09497 8.0009H1.73737L1.73261 8.01811C1.58053 8.65446 1.5 9.3186 1.5 10.0016C1.5 11.0577 1.69259 12.0689 2.04456 13.0019L5.21773 13.0015C5.07543 12.0524 5 11.0442 5 10.0016C5 9.31754 5.03246 8.64834 5.09497 8.0009ZM13.3985 8.00097H6.60462C6.5366 8.64123 6.5 9.31094 6.5 10.0016C6.5 11.0611 6.58615 12.0714 6.73973 13.0016H13.2634C13.417 12.0714 13.5031 11.0611 13.5031 10.0016C13.5031 9.31094 13.4665 8.64123 13.3985 8.00097ZM18.2662 8.00007L14.9081 8.00092C14.9706 8.64834 15.0031 9.31754 15.0031 10.0016C15.0031 11.0442 14.9277 12.0524 14.7854 13.0015L17.9585 13.0019C18.3105 12.0689 18.5031 11.0577 18.5031 10.0016C18.5031 9.31215 18.421 8.6419 18.2662 8.00007ZM6.8826 2.0907L6.85969 2.09942C4.81238 2.91413 3.15637 4.50144 2.2517 6.5013L5.29982 6.50167C5.61317 4.74888 6.16002 3.22295 6.8826 2.0907ZM10.0016 1.5L9.8859 1.5053C8.62046 1.62106 7.39798 3.62302 6.83026 6.50125H13.1728C12.6067 3.63109 11.3895 1.63229 10.1278 1.50632L10.0016 1.5ZM13.1216 2.09076L13.2284 2.26486C13.8976 3.37732 14.4057 4.83721 14.7033 6.50167L17.7514 6.5013C16.8868 4.5899 15.3358 3.05536 13.4128 2.21204L13.1216 2.09076Z" fill="#2AB665"/>
</svg>
