<svg width="30" height="30" viewBox="0 0 30 30" fill="none" xmlns="http://www.w3.org/2000/svg">
    <path d="M6.60079 3.3018L6.61479 6.1318L6.34679 6.2178C4.59279 6.78181 3.03079 7.8738 1.90279 9.3298C1.70679 9.5798 1.57879 9.7678 1.61079 9.7558C1.62679 9.7478 1.77679 9.6838 1.94079 9.6138C3.05879 9.1338 4.16679 8.84781 5.45079 8.7078C5.85279 8.6658 6.93279 8.6478 7.38279 8.6778C9.77679 8.8398 12.0388 9.6958 13.9008 11.1458C14.4868 11.6038 15.2568 12.3418 15.7048 12.8798C16.6648 14.0318 17.3588 15.2498 17.8448 16.6378C18.0408 17.1998 18.0688 17.4378 17.9928 17.8798C17.8488 18.7098 17.4368 19.4778 16.7788 20.1338C16.6328 20.2798 16.5048 20.3998 16.4948 20.3998C16.4848 20.3998 16.4668 20.3078 16.4528 20.1938C16.4108 19.8498 16.1528 18.9918 15.8968 18.3398C14.7008 15.3018 12.2748 12.9138 9.22279 11.7698C8.02079 11.3198 6.82479 11.0918 5.44079 11.0478C4.63479 11.0218 3.64679 11.1198 2.75679 11.3118C2.04279 11.4638 1.21479 11.7358 0.548785 12.0338L0.434785 12.0838L0.360785 12.3358C0.206785 12.8618 0.0927849 13.4398 0.0267849 14.0398C-0.0132151 14.3998 -0.00721515 15.5378 0.0367849 15.9098C0.116785 16.5698 0.244785 17.1718 0.432785 17.7518C1.10479 19.8278 2.53079 21.6238 4.40879 22.7578C4.73879 22.9578 5.29279 23.2378 5.65079 23.3858C5.85879 23.4718 6.45879 23.6798 6.64679 23.7318C6.66479 23.7378 6.67079 24.2758 6.67279 26.3338C6.67479 27.7618 6.68079 29.0578 6.68879 29.2138L6.70079 29.4978L17.9848 22.2938C24.1908 18.3318 29.2688 15.0858 29.2688 15.0798C29.2688 15.0718 6.86879 0.643805 6.66679 0.521805L6.58479 0.471806L6.60079 3.3018Z" fill="#ACACBF"/>
</svg>
