<svg width="124" height="130" viewBox="0 0 124 130" fill="none" xmlns="http://www.w3.org/2000/svg">
    <path d="M122.901 53C123.505 53 124 53.8744 124 54.9432V83.0568C124 84.1256 123.505 85 122.901 85H120.099C119.495 85 119 84.1256 119 83.0568V54.9432C119 53.8744 119.495 53 120.099 53H122.901Z" fill="#262F3F"/>
    <path d="M122.304 23.1033H120.994V57.2967H122.304V23.1033Z" fill="#262F3F"/>
    <path d="M53.4707 0.714386H51.9523V88.2893H53.4707V0.714386Z" fill="#262F3F"/>
    <path d="M53.9619 0.714525C53.9619 1.11645 53.6792 1.42905 53.3517 1.42905H52.0863C51.744 1.42905 51.476 1.11645 51.476 0.714525C51.476 0.312601 51.744 0 52.0863 0H53.3517C53.6792 0 53.9619 0.312601 53.9619 0.714525Z" fill="#262F3F"/>
    <path d="M34.9525 88.2895C33.4936 88.2895 32.7642 88.2895 31.2905 88.2895C36.0392 61.9114 39.8649 35.5332 44.6284 9.16994C45.1197 9.16994 46.2957 9.16994 46.7869 9.16994C42.857 35.5332 38.8973 61.9114 34.9525 88.2895Z" fill="#008B4F"/>
    <path d="M74.1177 88.2895C72.6589 88.2895 71.9295 88.2895 70.4557 88.2895C66.5109 61.9114 62.5661 35.5332 58.6213 9.16994C59.1125 9.16994 60.2885 9.16994 60.7798 9.16994C65.5433 35.5332 69.3542 61.9114 74.1177 88.2895Z" fill="#008B4F"/>
    <path d="M41.2793 33.4638C45.1645 30.5164 49.0051 27.4647 52.7118 24.1302C56.4184 27.4647 60.2591 30.5164 64.1443 33.4638L63.5191 29.9507C60.4674 27.5689 57.4604 25.1128 54.5279 22.4779C56.7459 20.3939 58.9193 18.1907 61.0033 15.8536L60.4526 12.7573C57.9815 15.6601 55.3913 18.3247 52.7267 20.8255C50.0621 18.3247 47.4719 15.6601 45.0008 12.7573L44.45 15.8536C46.5341 18.2056 48.7074 20.3939 50.9255 22.4779C47.9929 25.1128 44.971 27.5838 41.9194 29.9507L41.2793 33.4638Z" fill="#008B4F"/>
    <path d="M71.9891 77.2887C66.4366 74.3711 60.9436 71.3492 55.4953 68.1338C59.976 65.4245 64.4269 62.5813 68.8183 59.5594L67.7912 53.7836C63.4891 51.0892 59.2168 48.3055 55.0189 45.3283C58.3683 42.8721 61.6581 40.2819 64.8735 37.4982L64.3078 34.3126C60.5417 37.6768 56.6713 40.7881 52.7265 43.676C48.7816 40.7732 44.8964 37.6768 41.1302 34.3126L40.5645 37.4982C43.7799 40.2819 47.0846 42.887 50.4191 45.3283C46.2213 48.3055 41.9489 51.1041 37.6468 53.7836L36.6197 59.5594C41.0111 62.5813 45.4621 65.4245 49.9428 68.1338C44.4945 71.3492 38.9866 74.3711 33.4489 77.2887L33.1214 79.1048C33.2852 79.4621 33.449 79.8194 33.6723 80.2808C40.0882 76.9761 46.4445 73.5226 52.7265 69.801C59.0084 73.5077 65.3647 76.9613 71.7807 80.2808C72.0039 79.8194 72.1677 79.4621 72.3315 79.1048L71.9891 77.2887ZM52.7116 66.4815C47.6801 63.4447 42.7081 60.2293 37.7957 56.7757C42.8272 53.6943 47.814 50.4789 52.7116 46.9956C57.6091 50.4789 62.6108 53.6794 67.6275 56.7757C62.7151 60.2293 57.7431 63.4447 52.7116 66.4815Z" fill="#008B4F"/>
    <path d="M60.0951 14.0078H45.3132V12.2512H60.0951V14.0078ZM62.1493 21.2722H43.2738V23.0287H62.1493V21.2722ZM63.1467 32.5856H42.2615V34.3422H63.1467V32.5856ZM65.2606 44.0628H40.1626V45.8193H65.2606V44.0628ZM67.4637 56.4182H37.9594V58.1748H67.4637V56.4182ZM68.4462 67.0023H36.977V68.7588H68.4462V67.0023ZM70.7088 77.7947H34.7143V79.5512H70.7088V77.7947Z" fill="#008B4F"/>
    <path d="M105 112.059C102.806 112.307 100.894 113.698 99.1741 114.956C97.7065 116.039 96.1944 117.151 95.0233 117.151C93.8522 117.151 92.3401 116.039 90.8725 114.956C88.9898 113.566 86.8552 112 84.3943 112C81.9335 112 79.7988 113.566 77.9162 114.956C76.4486 116.039 74.9365 117.151 73.7654 117.151C72.5942 117.151 71.0822 116.039 69.6146 114.956C67.7319 113.566 65.5972 112 63.1364 112C60.6756 112 58.5409 113.566 56.6582 114.956C55.1906 116.039 53.6785 117.151 52.5074 117.151C51.3363 117.151 49.8243 116.039 48.3567 114.956C46.474 113.566 44.3393 112 41.8784 112C39.4176 112 37.2829 113.566 35.4003 114.956C33.9327 116.039 32.4206 117.151 31.2495 117.151C30.0784 117.151 28.5663 116.039 27.0987 114.956C25.216 113.566 23.0813 112 20.6205 112C18.1597 112 16.025 113.566 14.1423 114.956C12.6747 116.039 11.1627 117.151 9.99156 117.151C8.82044 117.151 7.30835 116.039 5.84075 114.956C4.12114 113.698 2.19399 112.234 0 112V115.966C1.05252 116.259 2.29778 117.166 3.49854 118.044C5.38122 119.434 7.5159 121 9.97672 121C12.4375 121 14.5722 119.434 16.4549 118.044C17.9225 116.961 19.4346 115.849 20.6057 115.849C21.7768 115.849 23.2889 116.961 24.7565 118.044C26.6391 119.434 28.7738 121 31.2346 121C33.6955 121 35.8302 119.434 37.7128 118.044C39.1804 116.961 40.6925 115.849 41.8636 115.849C43.0348 115.849 44.5468 116.961 46.0144 118.044C47.8971 119.434 50.0318 121 52.4926 121C54.9534 121 57.0881 119.434 58.9708 118.044C60.4384 116.961 61.9505 115.849 63.1216 115.849C64.2927 115.849 65.8047 116.961 67.2723 118.044C69.155 119.434 71.2897 121 73.7505 121C76.2113 121 78.3461 119.434 80.2287 118.044C81.6963 116.961 83.2084 115.849 84.3795 115.849C85.5506 115.849 87.0627 116.961 88.5303 118.044C90.4129 119.434 92.5477 121 95.0085 121C97.4693 121 99.604 119.434 101.487 118.044C102.687 117.151 103.933 116.259 104.985 115.966V112.059H105Z" fill="#3E4D67" fill-opacity="0.35"/>
    <path d="M27.1968 110.128C28.6706 111.229 30.1889 112.36 31.3649 112.36C32.5409 112.36 34.0593 111.229 35.5331 110.128C35.8754 109.874 36.2327 109.607 36.59 109.353V96.0156H23.9963V108.014C25.1426 108.609 26.1995 109.398 27.1968 110.128Z" fill="#262F3F"/>
    <path d="M69.905 110.128C71.3787 111.229 72.8971 112.36 74.0731 112.36C75.2491 112.36 76.7675 111.229 78.2412 110.128C79.2237 109.398 80.2955 108.609 81.4268 108.029V96.0156H68.8332V109.339C69.1904 109.607 69.5477 109.874 69.905 110.128Z" fill="#262F3F"/>
    <path d="M105.438 120.905C103.235 121.158 101.315 122.572 99.588 123.852C98.1143 124.954 96.5958 126.085 95.4198 126.085C94.2438 126.085 92.7255 124.954 91.2518 123.852C89.3612 122.438 87.2176 120.845 84.7465 120.845C82.2755 120.845 80.1319 122.438 78.2413 123.852C76.7676 124.954 75.2492 126.085 74.0732 126.085C72.8972 126.085 71.3788 124.954 69.9051 123.852C68.0146 122.438 65.871 120.845 63.3999 120.845C60.9288 120.845 58.7852 122.438 56.8946 123.852C55.4209 124.954 53.9026 126.085 52.7266 126.085C51.5505 126.085 50.0322 124.954 48.5585 123.852C46.6679 122.438 44.5243 120.845 42.0532 120.845C39.5821 120.845 37.4385 122.438 35.548 123.852C34.0743 124.954 32.5559 126.085 31.3799 126.085C30.2039 126.085 28.6855 124.954 27.2118 123.852C25.3213 122.438 23.1776 120.845 20.7066 120.845C18.2355 120.845 16.0919 122.438 14.2013 123.852C12.7276 124.954 11.2093 126.085 10.0333 126.085C8.85725 126.085 7.33885 124.954 5.86512 123.852C4.13834 122.572 2.20314 121.238 0 121V125C1.05691 125.298 2.30737 126.1 3.51314 126.993C5.40367 128.407 7.54726 130 10.0184 130C12.4894 130 14.633 128.407 16.5236 126.993C17.9973 125.891 19.5157 124.76 20.6917 124.76C21.8677 124.76 23.3861 125.891 24.8598 126.993C26.7503 128.407 28.8939 130 31.365 130C33.8361 130 35.9797 128.407 37.8702 126.993C39.3439 125.891 40.8623 124.76 42.0383 124.76C43.2144 124.76 44.7327 125.891 46.2064 126.993C48.097 128.407 50.2406 130 52.7116 130C55.1827 130 57.3264 128.407 59.2169 126.993C60.6906 125.891 62.209 124.76 63.385 124.76C64.561 124.76 66.0794 125.891 67.5531 126.993C69.4436 128.407 71.5872 130 74.0583 130C76.5294 130 78.673 128.407 80.5636 126.993C82.0373 125.891 83.5556 124.76 84.7316 124.76C85.9076 124.76 87.426 125.891 88.8997 126.993C90.7903 128.407 92.9339 130 95.405 130C97.8761 130 100.02 128.407 101.91 126.993C103.116 126.085 104.366 125.177 105.423 124.879V120.905H105.438Z" fill="#3E4D67" fill-opacity="0.35"/>
    <path d="M50.8659 59.5592H16.0771V85.3865H50.8659V59.5592Z" fill="#2AB665"/>
    <path d="M46.281 64.3377H41.6365V72.4804H46.281V64.3377Z" fill="#3E4D67"/>
    <path d="M37.1705 64.3377H32.526V72.4804H37.1705V64.3377Z" fill="#3E4D67"/>
    <path d="M25.2468 75.9491H20.6023V84.0918H25.2468V75.9491Z" fill="#3E4D67"/>
    <path d="M81.3376 89.5698L77.363 66.1391L70.4409 74.1776L69.4436 73.3291L77.0802 64.4718V64.4272H77.1099L114.727 20.7365L118.746 23.4308L81.3376 89.5698ZM78.6729 65.9902L82.0223 85.7292L92.1002 67.9105L78.6729 65.9902ZM78.6432 64.6654L91.5792 66.5261L88.602 53.084L78.6432 64.6654ZM89.9715 53.1286L92.9189 66.4666L100.258 53.4859L89.9715 53.1286ZM89.7184 51.8038L99.9601 52.1611L97.6229 42.6339L89.7184 51.8038ZM98.9924 42.753L101.211 51.7889L106.986 41.5919L98.9924 42.753ZM106.048 32.8389L98.6054 41.4877L106.748 40.3117L106.048 32.8389ZM107.329 32.5411L107.999 39.7907L112.494 31.8564L107.329 32.5411ZM111.586 26.3932L107.448 31.2014L112.092 30.5911L111.586 26.3932ZM112.747 25.0534L113.372 30.2934L117.02 23.8477L114.965 22.4633L112.747 25.0534Z" fill="#262F3F"/>
    <path d="M123.599 23.1032C123.599 19.7984 120.92 17.119 117.615 17.119C114.31 17.119 111.616 19.7984 111.616 23.1032C111.616 26.4079 114.295 29.1023 117.615 29.1023C120.92 29.1023 123.599 26.4228 123.599 23.1032Z" fill="#3E4D67"/>
    <path d="M119.937 23.1031C119.937 21.8229 118.895 20.7809 117.615 20.7809C116.335 20.7809 115.293 21.8229 115.293 23.1031C115.293 24.3833 116.335 25.4253 117.615 25.4253C118.895 25.4253 119.937 24.3982 119.937 23.1031Z" fill="white"/>
    <path d="M62.7448 8.35089C62.7448 9.15474 62.2089 9.79484 61.5391 9.79484H43.8841C43.2143 9.79484 42.6784 9.13985 42.6784 8.35089V4.67402C42.6784 3.87018 43.2291 3.23007 43.8841 3.23007H61.5391C62.2089 3.23007 62.7448 3.87018 62.7448 4.67402V8.35089Z" fill="#059052"/>
    <path d="M91.9216 81.4867C91.9216 83.0944 90.6116 84.4043 89.0039 84.4043H68.9375C67.3298 84.4043 66.0198 83.0944 66.0198 81.4867V74.0585C66.0198 72.4508 67.3298 71.1408 68.9375 71.1408H89.0039C90.6116 71.1408 91.9216 72.4508 91.9216 74.0585V81.4867Z" fill="#2AB665"/>
    <path d="M95.7323 94.0951C95.7323 95.7028 94.4223 97.0127 92.8146 97.0127H12.6084C11.0007 97.0127 9.6907 95.7028 9.6907 94.0951V86.6669C9.6907 85.0592 11.0007 83.7493 12.6084 83.7493H92.8146C94.4223 83.7493 95.7323 85.0592 95.7323 86.6669V94.0951Z" fill="#3E4D67"/>
</svg>
