<svg width="20" height="20" viewBox="0 0 20 20" fill="none" xmlns="http://www.w3.org/2000/svg">
    <path d="M18.069 4.27586C18 4.27586 17.931 4.2069 17.931 4.13793C17.931 3.44828 16.6897 2.34482 15.1034 2.34482H13.3793L10.0689 4.82759L6.75861 2.34482H5.03447C3.3793 2.34482 2.20688 3.44828 2.20688 4.13793C2.20688 4.2069 2.13793 4.27586 2.06897 4.27586C2 4.27586 1.93103 4.2069 1.93103 4.13793C1.93103 3.17241 3.37931 2 5.10344 2H6.75861L7.17241 1.5862C7.24138 1.51723 7.31033 1.51723 7.3793 1.5862L10.0689 4.75862L12.7586 1.5862C12.8276 1.51723 12.8965 1.51723 12.9655 1.5862L13.3793 2H15.0345C16.7586 2 18.2069 3.17241 18.2069 4.13793C18.2069 4.2069 18.1379 4.27586 18.069 4.27586ZM16 11.4483C15.931 11.931 15.8621 12.1379 15.7931 12.1379C15.7931 12.2069 15.7241 12.2069 15.6552 12.2069C15.5862 12.2069 15.5862 12.1379 15.5862 12.069C15.5862 12.069 15.6552 11.8621 15.7241 11.4483C15.7931 11.0345 15.5862 10.6897 15.5862 10.6897C15.5862 10.6207 15.5862 10.5517 15.6552 10.5517C15.7241 10.5517 15.7241 10.5517 15.7931 10.5517C15.7931 10.5517 15.7931 10.5517 15.7931 10.6207C15.7931 10.6207 16 11.0345 15.931 11.5172L16 11.4483ZM15.3103 12C15.3103 12.069 15.2414 12.069 15.1724 12.069C15.1034 12.069 15.1034 12 15.1034 11.931C15.1034 11.931 15.1724 11.7241 15.1724 11.3103C15.1724 10.8965 14.9655 10.5517 14.9655 10.5517C14.9655 10.4827 14.9655 10.4138 15.0345 10.4138C15.1034 10.4138 15.1034 10.4138 15.1724 10.4138C15.1724 10.4138 15.3793 10.8276 15.3793 11.3103C15.3793 11.7931 15.3103 12 15.2414 12H15.3103ZM14.8276 11.7241C14.6207 12.5517 14.2758 13.2414 14.2069 13.5172C14.0689 13.7931 14 14.1379 14.069 15.0345C14.069 15.931 14.069 16.5517 14 16.7586C14 16.8965 13.8621 16.9655 13.7241 16.9655C13.5862 16.9655 13.5172 16.8965 13.4483 16.6897C13.3793 16.3448 13.2414 14.8965 13.2414 14.6896C13.2414 14.5517 13.1034 14.4138 13.0345 14.4138C12.9655 14.4138 12.8965 14.4828 12.8276 14.7586C12.6896 15.3793 12.4828 16.8966 12.4138 17.2414C12.3448 17.5862 12.2069 17.6552 12.1379 17.6552C12.0689 17.6552 12.069 17.6552 12.069 17.6552C12 17.6552 11.7931 17.6552 11.7931 17.3793C11.7931 17.0345 12.069 14.9655 12.069 14.7586C12.069 14.6207 12.069 14.5517 12 14.5517C11.931 14.5517 11.931 14.6207 11.8621 14.6896C11.6552 14.9655 10.6896 16.6897 10.4138 17.2414C10.3448 17.3793 10.2758 17.3793 10.1379 17.3793C10.069 17.3793 10 17.3793 9.93103 17.3103C9.86207 17.2414 9.72413 17.0345 9.79309 16.8966C9.86206 16.7586 10.8276 14.5517 10.9655 14.2759C11.0345 14.069 11.0345 13.931 10.8965 13.931C10.8276 13.931 10.7586 14 10.6207 14.069C10.2759 14.4138 8.9655 15.7931 8.75861 15.931C8.68964 16 8.62069 16.069 8.55172 16.069C8.48275 16.069 8.41378 16 8.34481 15.931C8.20688 15.7931 8.2069 15.6552 8.27586 15.5172C8.41379 15.3793 10.069 13.2414 10.3448 12.6897C10.6207 12.2069 11.0345 11.3793 10.2069 11.3793C10.1379 11.3793 10.1379 11.3793 10.0689 11.3793C9.72412 11.3793 9.51724 11.4483 9.31034 11.4483C8.96552 11.4483 8.82757 11.3793 8.75861 11.3793C8.62068 11.3103 8.34482 11.1724 8.41378 10.9655C8.48275 10.8276 8.89654 10.8966 9.10344 10.8276C9.24137 10.7586 9.24137 10.7586 9.24137 10.7586C9.24137 10.7586 9.99999 10.5517 10.4827 10.2759C10.9655 10 12.069 9.51723 12.3448 9.51723C12.4828 9.51723 12.6207 9.44827 12.7586 9.44827C12.9655 9.44827 13.1724 9.44827 13.2414 9.51723C13.4483 9.5862 13.6552 10.1379 14.6207 10.5517C14.6207 10.5517 15.0345 10.9655 14.8276 11.7931V11.7241ZM6.75861 13.2414C6.48275 12.4138 6.34482 11.6552 6.34482 11.3793C6.27585 11.1034 6.13792 10.7586 5.65516 10.069C5.1724 9.3793 4.82758 8.82759 4.75862 8.62069C4.68965 8.48276 4.82758 8.27586 5.03447 8.27586C5.10344 8.27586 5.1724 8.27586 5.24136 8.41379C5.51722 8.68965 6.41379 9.7931 6.55172 9.93103C6.62069 10 6.75862 10.069 6.82758 10.069C6.96551 10.069 6.96552 10 6.89655 9.65517C6.68966 9.03448 6 7.65517 5.86207 7.37931C5.65517 6.89655 5.93102 6.89655 5.93102 6.89655C5.93102 6.89655 5.99999 6.82758 6.06896 6.82758C6.13792 6.82758 6.20688 6.82758 6.27585 6.96551C6.41378 7.24137 7.37931 9.17241 7.51724 9.31034C7.5862 9.37931 7.65516 9.44827 7.72413 9.44827C7.79309 9.44827 7.7931 9.37931 7.7931 9.24137C7.7931 8.89655 7.65517 6.96552 7.58621 6.34483C7.58621 6.13793 7.7931 6 7.93103 6C8.06897 6 8.2069 6.13792 8.27586 6.27586C8.34483 6.41379 8.68964 8.82758 8.75861 9.17241C8.75861 9.31034 8.89655 9.44827 8.96552 9.44827C9.03448 9.44827 9.10344 9.3793 9.17241 9.17241C9.24137 8.68965 9.65517 6.82758 9.65517 6.62068C9.65517 6.41379 9.7931 6.34483 9.93103 6.34483H10C10.1379 6.34483 10.2759 6.48276 10.2759 6.68965C10.2759 6.89655 10.069 9.24138 10.1379 10C9.79309 10.1379 9.44827 10.2759 9.24137 10.2759L9.10344 10.3448C9.10344 10.3448 9.03448 10.3448 8.96552 10.3448C8.68966 10.3448 8.27585 10.3448 8.06895 10.7586C7.99999 10.9655 7.93102 11.1724 7.99998 11.3103C8.13791 11.6552 8.55172 11.8621 8.62069 11.931C8.75862 12 8.9655 12.069 9.37929 12.069C9.58619 12.069 9.79309 12.069 10.1379 12C10.069 12.1379 10 12.2759 9.93103 12.4138L9.86206 12.4828C9.72413 12.6896 9.31034 13.3103 8.62069 14.2069C8.48276 14.2069 8.41379 14.2069 8.27586 14.2069C8.06897 14.2069 7.86205 14.2069 7.65516 14.2759C7.65516 14.2759 7.10344 14.2069 6.75861 13.3793V13.2414ZM7.31033 14.7586C7.31033 14.8276 7.24138 14.8276 7.17241 14.8276C7.17241 14.8276 7.17241 14.8276 7.10344 14.8276C7.10344 14.8276 6.68965 14.6897 6.41378 14.2759C6.13792 13.8621 6.06896 13.6552 6.06896 13.6552C6.06896 13.5862 6.06896 13.5172 6.13793 13.5172C6.20689 13.5172 6.27585 13.5172 6.27585 13.5862C6.27585 13.5862 6.34483 13.7931 6.55172 14.1379C6.82759 14.4828 7.17241 14.6207 7.17241 14.6207C7.24138 14.6207 7.24138 14.6897 7.24138 14.7586H7.31033ZM6.68964 15.0345C6.68964 15.1034 6.62067 15.1034 6.62067 15.1034H6.55172C6.55172 15.1034 6.13791 14.8966 5.93102 14.4828C5.65516 14.069 5.65516 13.8621 5.65516 13.7931C5.65516 13.7241 5.72413 13.6552 5.72413 13.6552C5.7931 13.6552 5.86207 13.7241 5.86207 13.7241C5.86207 13.7241 5.86206 13.931 6.13793 14.2759C6.34482 14.6207 6.68964 14.8276 6.68964 14.8276C6.75861 14.8276 6.75861 14.8966 6.75861 14.9655L6.68964 15.0345ZM16.9655 0H3.03448C1.37931 0 0 1.37931 0 3.03448V16.9655C0 18.6207 1.37931 20 3.03448 20H16.9655C18.6207 20 20 18.6207 20 16.9655V3.03448C20 1.37931 18.6207 0 16.9655 0Z" fill="#2AB665"/>
</svg>
