<svg width="100" height="9" viewBox="0 0 100 9" fill="none" xmlns="http://www.w3.org/2000/svg">
    <path d="M100 0C97.9102 0.248781 96.1028 1.69755 94.4649 2.95608C93.067 4.03901 91.6267 5.15121 90.5112 5.15121C89.3957 5.15121 87.9554 4.03901 86.5575 2.95608C84.7642 1.56584 82.7309 0 80.3869 0C78.043 0 76.0096 1.56584 74.2164 2.95608C72.8184 4.03901 71.3781 5.15121 70.2626 5.15121C69.1471 5.15121 67.7069 4.03901 66.309 2.95608C64.5157 1.56584 62.4824 0 60.1384 0C57.7944 0 55.7611 1.56584 53.9678 2.95608C52.5699 4.03901 51.1296 5.15121 50.0141 5.15121C48.8986 5.15121 47.4584 4.03901 46.0605 2.95608C44.2672 1.56584 42.2338 0 39.8899 0C37.5459 0 35.5126 1.56584 33.7193 2.95608C32.3214 4.03901 30.8811 5.15121 29.7656 5.15121C28.6501 5.15121 27.2099 4.03901 25.812 2.95608C24.0187 1.56584 21.9853 0 19.6413 0C17.2974 0 15.2641 1.56584 13.4708 2.95608C12.0729 4.03901 10.6326 5.15121 9.51711 5.15121C8.40161 5.15121 6.96131 4.03901 5.5634 2.95608C3.92545 1.69755 2.08981 0.292696 0 0.0585492V3.96585C1.00254 4.25853 2.18867 5.16587 3.33241 6.04392C5.12569 7.43416 7.15901 9 9.50298 9C11.847 9 13.8803 7.43416 15.6735 6.04392C17.0715 4.96099 18.5118 3.84879 19.6273 3.84879C20.7428 3.84879 22.183 4.96099 23.5809 6.04392C25.3742 7.43416 27.4075 9 29.7515 9C32.0955 9 34.1288 7.43416 35.9221 6.04392C37.32 4.96099 38.7603 3.84879 39.8758 3.84879C40.9913 3.84879 42.4315 4.96099 43.8294 6.04392C45.6227 7.43416 47.656 9 50 9C52.344 9 54.3773 7.43416 56.1706 6.04392C57.5685 4.96099 59.0088 3.84879 60.1243 3.84879C61.2398 3.84879 62.68 4.96099 64.0779 6.04392C65.8712 7.43416 67.9045 9 70.2485 9C72.5925 9 74.6258 7.43416 76.4191 6.04392C77.817 4.96099 79.2573 3.84879 80.3728 3.84879C81.4883 3.84879 82.9285 4.96099 84.3264 6.04392C86.1197 7.43416 88.1531 9 90.4971 9C92.841 9 94.8744 7.43416 96.6676 6.04392C97.8114 5.15123 98.9975 4.25853 100 3.96585V0Z" fill="#3E4D67" fill-opacity="0.35"/>
</svg>
