<svg width="89" height="88" viewBox="0 0 89 88" fill="none" xmlns="http://www.w3.org/2000/svg">
    <g filter="url(#filter0_d)">
    <path d="M59.3434 35.1217H65.682C68.6819 35.1217 68.8015 37.1648 68.8015 37.7429C68.8015 39.0983 67.6056 41.7594 63.9578 41.7594H57.4996C57.4996 41.7594 59.3135 35.2912 59.3434 35.1217Z" fill="#00853F"/>
    <path d="M23.1754 46.2642H28.9758C31.8163 46.2642 31.9757 47.0316 32.3644 47.6893C32.753 48.3471 32.5737 49.7324 32.3144 50.2109C31.9656 50.8088 31.3974 52.6626 27.7697 52.6626H21.3215C21.3215 52.6626 23.1752 46.2741 23.1752 46.2642" fill="#00853F"/>
    <path d="M84.4687 29.1614V80H4.01003V29.1614H19.4878L10.9067 58.7616H28.4676C36.0719 58.7616 37.3974 56.9876 38.9422 55.6919C41.0052 53.9677 42.1115 49.8616 41.1846 47.0112C40.5269 44.988 38.6133 43.7621 38.404 43.7024C40.786 42.6061 42.1713 40.1942 42.3408 39.8354C43.2178 38.0116 43.9054 34.6927 41.7129 32.0317C39.889 29.8191 36.341 29.2012 33.7696 29.1614H52.5762L43.9652 58.8214H52.6759L55.8552 47.5693H60.8384C64.4562 47.5693 64.1273 49.8217 64.2169 50.7884L64.4958 59.0506H72.5885C72.5885 59.0506 72.2198 49.7719 72.1899 49.0942C72.0803 46.7122 70.5056 45.6358 69.1501 45.6358C71.7414 44.9382 73.9939 42.5861 74.8908 41.0812C75.9273 39.347 76.7146 36.5864 75.6881 33.8456C74.1932 29.869 70.3561 29.2112 67.6751 29.1614H84.4687Z" fill="#00853F"/>
    <path d="M4 60.631H84.4587V0H4V60.631Z" fill="white"/>
    <path d="M4 19.4344H84.4587V0H4V19.4344Z" fill="#FFCC30"/>
    <path d="M84.4687 29.1614V80H4.01003V29.1614H19.4878L10.9067 58.7616H28.4676C36.0719 58.7616 37.3974 56.9876 38.9422 55.6919C41.0052 53.9677 42.1115 49.8616 41.1846 47.0112C40.5269 44.988 38.6133 43.7621 38.404 43.7024C40.786 42.6061 42.1713 40.1942 42.3408 39.8354C43.2178 38.0116 43.9054 34.6927 41.7129 32.0317C39.889 29.8191 36.341 29.2012 33.7696 29.1614H52.5762L43.9652 58.8214H52.6759L55.8552 47.5693H60.8384C64.4562 47.5693 64.1273 49.8217 64.2169 50.7884L64.4958 59.0506H72.5885C72.5885 59.0506 72.2198 49.7719 72.1899 49.0942C72.0803 46.7122 70.5056 45.6358 69.1501 45.6358C71.7414 44.9382 73.9939 42.5861 74.8908 41.0812C75.9273 39.347 76.7146 36.5864 75.6881 33.8456C74.1932 29.869 70.3561 29.2112 67.6751 29.1614H84.4687Z" fill="#008B4F"/>
    <path d="M26.3447 35.0919H33.062C34.3876 35.0919 35.5935 35.9391 35.5935 37.3543C35.5935 39.2479 34.0786 40.5735 31.9757 40.5735H24.7999L26.3447 35.0919Z" fill="#00853F"/>
    <path d="M59.3434 35.1217H65.682C68.6819 35.1217 68.8015 37.1648 68.8015 37.7429C68.8015 39.0983 67.6056 41.7594 63.9578 41.7594H57.4996C57.4996 41.7594 59.3135 35.2912 59.3434 35.1217Z" fill="#00853F"/>
    <path d="M23.1754 46.2642H28.9758C31.8163 46.2642 31.9757 47.0316 32.3644 47.6893C32.753 48.3471 32.5737 49.7324 32.3144 50.2109C31.9656 50.8088 31.3974 52.6626 27.7697 52.6626H21.3215C21.3215 52.6626 23.1752 46.2741 23.1752 46.2642" fill="#00853F"/>
    </g>
    <defs>
    <filter id="filter0_d" x="0" y="0" width="88.4687" height="88" filterUnits="userSpaceOnUse" color-interpolation-filters="sRGB">
    <feFlood flood-opacity="0" result="BackgroundImageFix"/>
    <feColorMatrix in="SourceAlpha" type="matrix" values="0 0 0 0 0 0 0 0 0 0 0 0 0 0 0 0 0 0 127 0"/>
    <feOffset dy="4"/>
    <feGaussianBlur stdDeviation="2"/>
    <feColorMatrix type="matrix" values="0 0 0 0 0 0 0 0 0 0 0 0 0 0 0 0 0 0 0.25 0"/>
    <feBlend mode="normal" in2="BackgroundImageFix" result="effect1_dropShadow"/>
    <feBlend mode="normal" in="SourceGraphic" in2="effect1_dropShadow" result="shape"/>
    </filter>
    </defs>
</svg>
