<svg width="18" height="12" viewBox="0 0 18 12" fill="none" xmlns="http://www.w3.org/2000/svg">
    <path d="M11.2098 0.387019L11.293 0.29282C11.6535 -0.0676266 12.2207 -0.0952975 12.613 0.209768L12.7072 0.292967L17.7038 5.29061C18.064 5.65093 18.0919 6.21778 17.7873 6.61006L17.7042 6.70427L12.7076 11.7077C12.3173 12.0985 11.6842 12.0989 11.2934 11.7087C10.9327 11.3484 10.9045 10.7812 11.2093 10.3887L11.2924 10.2945L14.581 7H1C0.487164 7 0.064493 6.61396 0.00672793 6.11662L0 6C0 5.48716 0.38604 5.06449 0.883379 5.00673L1 5H14.584L11.2928 1.70703C10.9324 1.34651 10.9047 0.779279 11.2098 0.387019L11.293 0.29282L11.2098 0.387019Z" fill="#212121"/>
</svg>
