<svg width="25" height="25" viewBox="0 0 25 25" fill="none" xmlns="http://www.w3.org/2000/svg">
    <path d="M6.54872 11.9013C2.93196 11.9013 0 14.8332 0 18.45C0 22.0667 2.93196 24.9987 6.54872 24.9987C10.1655 24.9987 13.0974 22.0667 13.0974 18.45C13.0974 14.8332 10.1655 11.9013 6.54872 11.9013ZM13.0709 14.2818C13.4242 14.8334 13.7094 15.4329 13.9147 16.0682L22.321 16.0685C22.8142 16.0685 23.214 16.4684 23.214 16.9615V18.0419C23.214 18.8225 22.8735 19.5644 22.2815 20.0733C20.7835 21.3612 18.526 22.0233 15.4788 22.0233C14.7658 22.0233 14.0959 21.987 13.4688 21.915C13.1724 22.5105 12.7988 23.0627 12.3627 23.5586C13.3178 23.7262 14.3572 23.8093 15.4788 23.8093C18.9193 23.8093 21.585 23.0275 23.4458 21.4276C24.4325 20.5794 25 19.343 25 18.0419V16.9615C25 15.482 23.8006 14.2825 22.321 14.2825L13.0709 14.2818ZM7.47838 14.9834L7.56083 15.0523L10.5561 18.0484L10.6045 18.1088L10.6458 18.1771L10.6842 18.27L10.6979 18.3214L10.7113 18.4243L10.7067 18.5284L10.6842 18.6298L10.6461 18.7223L10.6168 18.7728L10.5562 18.8514L7.56083 21.8476C7.32834 22.0801 6.95139 22.0801 6.7189 21.8476C6.51224 21.641 6.48927 21.3202 6.65001 21.0882L6.7189 21.0057L8.67884 19.0453H2.97669C2.68443 19.0453 2.44135 18.8347 2.39095 18.557L2.38135 18.45C2.38135 18.1577 2.59195 17.9147 2.86968 17.8642L2.97669 17.8547H8.67884L6.7189 15.8943C6.51224 15.6876 6.48927 15.3668 6.65001 15.1348L6.7189 15.0523C6.92556 14.8457 7.24636 14.8227 7.47838 14.9834ZM15.4788 0C12.1908 0 9.52542 2.66542 9.52542 5.95339C9.52542 9.24135 12.1908 11.9068 15.4788 11.9068C18.7668 11.9068 21.4322 9.24135 21.4322 5.95339C21.4322 2.66542 18.7668 0 15.4788 0ZM15.4788 1.78602C17.7804 1.78602 19.6462 3.65181 19.6462 5.95339C19.6462 8.25496 17.7804 10.1208 15.4788 10.1208C13.1772 10.1208 11.3114 8.25496 11.3114 5.95339C11.3114 3.65181 13.1772 1.78602 15.4788 1.78602Z" fill="#366CB2"/>
</svg>
